<svg width="327" height="21" viewBox="0 0 327 21" fill="none" xmlns="http://www.w3.org/2000/svg">
<path d="M53.3333 12C53.3333 13.4728 54.5272 14.6667 56 14.6667C57.4728 14.6667 58.6667 13.4728 58.6667 12C58.6667 10.5272 57.4728 9.33333 56 9.33333C54.5272 9.33333 53.3333 10.5272 53.3333 12ZM197 12V12.5H197.247L197.397 12.3037L197 12ZM203.5 3.5V3H203.253L203.103 3.19627L203.5 3.5ZM321.333 3.5C321.333 4.97276 322.527 6.16667 324 6.16667C325.473 6.16667 326.667 4.97276 326.667 3.5C326.667 2.02724 325.473 0.833333 324 0.833333C322.527 0.833333 321.333 2.02724 321.333 3.5ZM56 12.5H197V11.5H56V12.5ZM197.397 12.3037L203.897 3.80373L203.103 3.19627L196.603 11.6963L197.397 12.3037ZM203.5 4H324V3H203.5V4Z" fill="#D9F626"/>
<path d="M0.333333 3C0.333333 4.47276 1.52724 5.66667 3 5.66667C4.47276 5.66667 5.66667 4.47276 5.66667 3C5.66667 1.52724 4.47276 0.333333 3 0.333333C1.52724 0.333333 0.333333 1.52724 0.333333 3ZM88.496 3L88.8156 2.61554L88.6767 2.5H88.496V3ZM106.536 18L106.217 18.3845L106.356 18.5H106.536V18ZM291.333 18C291.333 19.4728 292.527 20.6667 294 20.6667C295.473 20.6667 296.667 19.4728 296.667 18C296.667 16.5272 295.473 15.3333 294 15.3333C292.527 15.3333 291.333 16.5272 291.333 18ZM3 3.5H88.496V2.5H3V3.5ZM88.1763 3.38446L106.217 18.3845L106.856 17.6155L88.8156 2.61554L88.1763 3.38446ZM106.536 18.5H294V17.5H106.536V18.5Z" fill="#D9F626"/>
<path d="M105.833 4.5C105.833 5.97276 107.027 7.16667 108.5 7.16667C109.973 7.16667 111.167 5.97276 111.167 4.5C111.167 3.02724 109.973 1.83333 108.5 1.83333C107.027 1.83333 105.833 3.02724 105.833 4.5ZM169.833 4.5C169.833 5.97276 171.027 7.16667 172.5 7.16667C173.973 7.16667 175.167 5.97276 175.167 4.5C175.167 3.02724 173.973 1.83333 172.5 1.83333C171.027 1.83333 169.833 3.02724 169.833 4.5ZM108.5 5H172.5V4H108.5V5Z" fill="#D9F626"/>
</svg>
