<svg width="300" height="82" viewBox="0 0 300 82" fill="none" xmlns="http://www.w3.org/2000/svg">
<path d="M143.6 77.68C143.48 77.6933 143.373 77.7 143.28 77.7H141.5V80H140.78V73H143.21C143.85 73 144.327 73.2033 144.64 73.61C144.96 74.0167 145.12 74.55 145.12 75.21C145.12 75.71 145.067 76.1533 144.96 76.54C144.86 76.92 144.63 77.2233 144.27 77.45L145.13 80H144.39L143.6 77.68ZM143.19 77C143.55 77 143.817 76.9067 143.99 76.72C144.163 76.5267 144.27 76.31 144.31 76.07C144.357 75.8233 144.38 75.5467 144.38 75.24C144.38 74.2133 143.953 73.7 143.1 73.7H141.5V77H143.19ZM146.355 79.33L148.815 75.62C149.048 75.2667 149.165 74.93 149.165 74.61C149.165 74.31 149.065 74.0667 148.865 73.88C148.665 73.6933 148.425 73.6 148.145 73.6C147.911 73.6 147.705 73.6767 147.525 73.83C147.345 73.9767 147.218 74.1667 147.145 74.4L146.495 74.1C146.621 73.7533 146.828 73.4667 147.115 73.24C147.401 73.0133 147.755 72.9 148.175 72.9C148.508 72.9 148.805 72.9733 149.065 73.12C149.331 73.26 149.538 73.4567 149.685 73.71C149.831 73.9567 149.905 74.2367 149.905 74.55C149.905 75.0033 149.758 75.4533 149.465 75.9L147.195 79.33H149.935V80H146.355V79.33ZM151.379 78.72C151.692 79.1733 152.105 79.4 152.619 79.4C152.892 79.4 153.135 79.3367 153.349 79.21C153.562 79.0833 153.725 78.9133 153.839 78.7C153.959 78.48 154.019 78.2433 154.019 77.99C154.019 77.7233 153.952 77.4833 153.819 77.27C153.685 77.05 153.502 76.88 153.269 76.76C153.035 76.6333 152.775 76.57 152.489 76.57H151.149L151.529 73H154.189V73.72H152.189L151.959 75.87H152.619C153.005 75.87 153.362 75.9667 153.689 76.16C154.015 76.3467 154.272 76.6033 154.459 76.93C154.652 77.25 154.749 77.6033 154.749 77.99C154.749 78.3767 154.652 78.7333 154.459 79.06C154.272 79.3867 154.015 79.6467 153.689 79.84C153.362 80.0267 153.005 80.12 152.619 80.12C152.259 80.12 151.922 80.0367 151.609 79.87C151.295 79.6967 151.042 79.4633 150.849 79.17L151.379 78.72Z" fill="#2E2E2E"/>
<path fill-rule="evenodd" clip-rule="evenodd" d="M291.968 0H291.089V3.60205L294.606 3.60205V4.50262H290.209L290.209 3.60226V0H0V25.2158H2.63826V27.9175H0V29.7186H1.75879V27.9177H2.63892V29.7188H2.63826V32.4202H0V59.3353L17.6119 77H135.612V69.7529H159.388V77H268.068L267.533 76.453L294.513 48.8252L295 49.3242V0H294.606V2.70169H291.968V0ZM295 53.4205L271.974 77H277.388L295 59.3353V53.4205ZM217.217 74.7471H218.097V76.5482H217.217V74.7471ZM221.614 72.0453H218.976V76.5481H221.614V72.0453ZM213.699 72.0453H216.337V76.5481H213.699V72.0453Z" fill="#FFFE54"/>
<path d="M34.256 37.04C33.914 36.41 33.419 35.933 32.771 35.609C32.141 35.267 31.394 35.096 30.53 35.096C29.036 35.096 27.839 35.591 26.939 36.581C26.039 37.553 25.589 38.858 25.589 40.496C25.589 42.242 26.057 43.61 26.993 44.6C27.947 45.572 29.252 46.058 30.908 46.058C32.042 46.058 32.996 45.77 33.77 45.194C34.562 44.618 35.138 43.79 35.498 42.71H29.639V39.308H39.683V43.601C39.341 44.753 38.756 45.824 37.928 46.814C37.118 47.804 36.083 48.605 34.823 49.217C33.563 49.829 32.141 50.135 30.557 50.135C28.685 50.135 27.011 49.73 25.535 48.92C24.077 48.092 22.934 46.949 22.106 45.491C21.296 44.033 20.891 42.368 20.891 40.496C20.891 38.624 21.296 36.959 22.106 35.501C22.934 34.025 24.077 32.882 25.535 32.072C26.993 31.244 28.658 30.83 30.53 30.83C32.798 30.83 34.706 31.379 36.254 32.477C37.82 33.575 38.855 35.096 39.359 37.04H34.256ZM52.5544 50.189C50.7724 50.189 49.1344 49.775 47.6404 48.947C46.1644 48.119 44.9854 46.967 44.1034 45.491C43.2394 43.997 42.8074 42.323 42.8074 40.469C42.8074 38.615 43.2394 36.95 44.1034 35.474C44.9854 33.998 46.1644 32.846 47.6404 32.018C49.1344 31.19 50.7724 30.776 52.5544 30.776C54.3364 30.776 55.9654 31.19 57.4414 32.018C58.9354 32.846 60.1054 33.998 60.9514 35.474C61.8154 36.95 62.2474 38.615 62.2474 40.469C62.2474 42.323 61.8154 43.997 60.9514 45.491C60.0874 46.967 58.9174 48.119 57.4414 48.947C55.9654 49.775 54.3364 50.189 52.5544 50.189ZM52.5544 45.977C54.0664 45.977 55.2724 45.473 56.1724 44.465C57.0904 43.457 57.5494 42.125 57.5494 40.469C57.5494 38.795 57.0904 37.463 56.1724 36.473C55.2724 35.465 54.0664 34.961 52.5544 34.961C51.0244 34.961 49.8004 35.456 48.8824 36.446C47.9824 37.436 47.5324 38.777 47.5324 40.469C47.5324 42.143 47.9824 43.484 48.8824 44.492C49.8004 45.482 51.0244 45.977 52.5544 45.977ZM86.8727 31.046V34.745H81.8507V50H77.2337V34.745H72.2117V31.046H86.8727ZM99.5038 50.189C97.7218 50.189 96.0838 49.775 94.5898 48.947C93.1138 48.119 91.9348 46.967 91.0528 45.491C90.1888 43.997 89.7568 42.323 89.7568 40.469C89.7568 38.615 90.1888 36.95 91.0528 35.474C91.9348 33.998 93.1138 32.846 94.5898 32.018C96.0838 31.19 97.7218 30.776 99.5038 30.776C101.286 30.776 102.915 31.19 104.391 32.018C105.885 32.846 107.055 33.998 107.901 35.474C108.765 36.95 109.197 38.615 109.197 40.469C109.197 42.323 108.765 43.997 107.901 45.491C107.037 46.967 105.867 48.119 104.391 48.947C102.915 49.775 101.286 50.189 99.5038 50.189ZM99.5038 45.977C101.016 45.977 102.222 45.473 103.122 44.465C104.04 43.457 104.499 42.125 104.499 40.469C104.499 38.795 104.04 37.463 103.122 36.473C102.222 35.465 101.016 34.961 99.5038 34.961C97.9738 34.961 96.7498 35.456 95.8318 36.446C94.9318 37.436 94.4818 38.777 94.4818 40.469C94.4818 42.143 94.9318 43.484 95.8318 44.492C96.7498 45.482 97.9738 45.977 99.5038 45.977ZM127.288 31.046C129.286 31.046 131.032 31.442 132.526 32.234C134.02 33.026 135.172 34.142 135.982 35.582C136.81 37.004 137.224 38.651 137.224 40.523C137.224 42.377 136.81 44.024 135.982 45.464C135.172 46.904 134.011 48.02 132.499 48.812C131.005 49.604 129.268 50 127.288 50H120.187V31.046H127.288ZM126.991 46.004C128.737 46.004 130.096 45.527 131.068 44.573C132.04 43.619 132.526 42.269 132.526 40.523C132.526 38.777 132.04 37.418 131.068 36.446C130.096 35.474 128.737 34.988 126.991 34.988H124.804V46.004H126.991ZM145.771 34.745V38.579H151.954V42.143H145.771V46.301H152.764V50H141.154V31.046H152.764V34.745H145.771ZM174.905 31.046L168.182 50H162.404L155.681 31.046H160.595L165.293 45.356L170.018 31.046H174.905ZM190.523 31.046V34.745H182.801V38.741H188.579V42.332H182.801V50H178.184V31.046H190.523ZM203.264 50.189C201.482 50.189 199.844 49.775 198.35 48.947C196.874 48.119 195.695 46.967 194.813 45.491C193.949 43.997 193.517 42.323 193.517 40.469C193.517 38.615 193.949 36.95 194.813 35.474C195.695 33.998 196.874 32.846 198.35 32.018C199.844 31.19 201.482 30.776 203.264 30.776C205.046 30.776 206.675 31.19 208.151 32.018C209.645 32.846 210.815 33.998 211.661 35.474C212.525 36.95 212.957 38.615 212.957 40.469C212.957 42.323 212.525 43.997 211.661 45.491C210.797 46.967 209.627 48.119 208.151 48.947C206.675 49.775 205.046 50.189 203.264 50.189ZM203.264 45.977C204.776 45.977 205.982 45.473 206.882 44.465C207.8 43.457 208.259 42.125 208.259 40.469C208.259 38.795 207.8 37.463 206.882 36.473C205.982 35.465 204.776 34.961 203.264 34.961C201.734 34.961 200.51 35.456 199.592 36.446C198.692 37.436 198.242 38.777 198.242 40.469C198.242 42.143 198.692 43.484 199.592 44.492C200.51 45.482 201.734 45.977 203.264 45.977ZM221.493 46.436H227.541V50H216.876V31.046H221.493V46.436ZM235.71 31.046V50H231.093V31.046H235.71ZM249.37 50.189C247.588 50.189 245.95 49.775 244.456 48.947C242.98 48.119 241.801 46.967 240.919 45.491C240.055 43.997 239.623 42.323 239.623 40.469C239.623 38.615 240.055 36.95 240.919 35.474C241.801 33.998 242.98 32.846 244.456 32.018C245.95 31.19 247.588 30.776 249.37 30.776C251.152 30.776 252.781 31.19 254.257 32.018C255.751 32.846 256.921 33.998 257.767 35.474C258.631 36.95 259.063 38.615 259.063 40.469C259.063 42.323 258.631 43.997 257.767 45.491C256.903 46.967 255.733 48.119 254.257 48.947C252.781 49.775 251.152 50.189 249.37 50.189ZM249.37 45.977C250.882 45.977 252.088 45.473 252.988 44.465C253.906 43.457 254.365 42.125 254.365 40.469C254.365 38.795 253.906 37.463 252.988 36.473C252.088 35.465 250.882 34.961 249.37 34.961C247.84 34.961 246.616 35.456 245.698 36.446C244.798 37.436 244.348 38.777 244.348 40.469C244.348 42.143 244.798 43.484 245.698 44.492C246.616 45.482 247.84 45.977 249.37 45.977Z" fill="#2E2E2E"/>
</svg>
