<svg width="231" height="19" viewBox="0 0 231 19" fill="none" xmlns="http://www.w3.org/2000/svg">
<path d="M15.264 18H18.288V8.904H10.392V11.616H14.904C14.904 12.936 13.776 15.408 9.96 15.408C6.408 15.408 3.96 12.984 3.96 9.6C3.96 6.216 6.24 3.816 9.552 3.816C11.904 3.816 13.728 4.752 14.472 6.288C14.448 6.312 17.592 5.592 17.592 5.592C16.464 2.568 13.464 0.839999 9.744 0.839999C4.584 0.839999 0.816 4.608 0.816 9.6C0.816 14.592 4.656 18.384 9.6 18.384C12.072 18.384 13.632 17.352 14.472 16.44C15.12 15.72 15.168 14.352 15.432 13.44L15.936 13.56C15.696 14.496 15.264 15.696 15.264 16.656V18ZM22.5285 9.6C22.5285 14.568 26.1765 18.384 30.8085 18.384C35.4405 18.384 39.0885 14.328 39.0885 9.6C39.0885 4.872 35.4405 0.839999 30.8085 0.839999C26.1765 0.839999 22.5285 4.632 22.5285 9.6ZM25.6965 9.6C25.6965 6.816 27.3765 3.888 30.8085 3.888C34.2405 3.888 35.9445 6.816 35.9445 9.6C35.9445 12.384 34.2405 15.336 30.8085 15.336C27.3765 15.336 25.6965 12.384 25.6965 9.6ZM59.268 18V4.128H63.756V1.2H51.636V4.128H56.124V18H59.268ZM67.2285 9.6C67.2285 14.568 70.8765 18.384 75.5085 18.384C80.1405 18.384 83.7885 14.328 83.7885 9.6C83.7885 4.872 80.1405 0.839999 75.5085 0.839999C70.8765 0.839999 67.2285 4.632 67.2285 9.6ZM70.3965 9.6C70.3965 6.816 72.0765 3.888 75.5085 3.888C78.9405 3.888 80.6445 6.816 80.6445 9.6C80.6445 12.384 78.9405 15.336 75.5085 15.336C72.0765 15.336 70.3965 12.384 70.3965 9.6ZM103.944 18.024C108.696 18.048 112.416 14.232 112.416 9.24C112.416 4.248 108.816 0.839999 104.064 0.839999H97.032V18H99.792L103.944 18.024ZM100.176 15.048V3.816H103.608C106.968 3.816 109.368 6.24 109.368 9.288C109.368 12.312 106.848 15.048 103.488 15.048H100.176ZM117.338 18H129.17V15.072H120.386V10.896H128.45V7.968H120.386V4.128H129.05V1.2H117.338V18ZM135.563 1.2H132.203L138.395 18H142.139L148.331 1.2H144.971L140.771 12.696C140.483 13.536 140.531 14.712 140.531 15.624H140.003C140.003 14.712 140.075 13.536 139.763 12.696L135.563 1.2ZM164.577 4.248V1.2H152.865V18H156.009V11.592H163.257V8.568H156.009V4.248H164.577ZM168.371 9.6C168.371 14.568 172.019 18.384 176.651 18.384C181.283 18.384 184.931 14.328 184.931 9.6C184.931 4.872 181.283 0.839999 176.651 0.839999C172.019 0.839999 168.371 4.632 168.371 9.6ZM171.539 9.6C171.539 6.816 173.219 3.888 176.651 3.888C180.083 3.888 181.787 6.816 181.787 9.6C181.787 12.384 180.083 15.336 176.651 15.336C173.219 15.336 171.539 12.384 171.539 9.6ZM192.822 15.072V1.2H189.774V18H200.958V15.072H192.822ZM206.073 18H209.217V1.2H206.073V18ZM213.75 9.6C213.75 14.568 217.398 18.384 222.03 18.384C226.662 18.384 230.31 14.328 230.31 9.6C230.31 4.872 226.662 0.839999 222.03 0.839999C217.398 0.839999 213.75 4.632 213.75 9.6ZM216.918 9.6C216.918 6.816 218.598 3.888 222.03 3.888C225.462 3.888 227.166 6.816 227.166 9.6C227.166 12.384 225.462 15.336 222.03 15.336C218.598 15.336 216.918 12.384 216.918 9.6Z" fill="white"/>
</svg>
