<svg width="223" height="258" viewBox="0 0 223 258" fill="none" xmlns="http://www.w3.org/2000/svg">
<g filter="url(#filter0_ddd_285_815)">
<g filter="url(#filter1_d_285_815)">
<path d="M38.2368 38.2924L12.9868 60.8718V82.2308L18.9671 88.9436H65.4803L72.7895 79.7898H147.211L119.967 105.421V115.795L92.7237 140.205H42.2237L38.2368 146.308H86.7434L56.8421 174.99H43.5526L10.9934 209.774L22.9539 224.421H42.2237V218.318H72.7895L73.4539 224.421H81.4276L88.0724 217.097H139.901L145.217 221.98L167.145 203.672L170.467 206.723L148.539 224.421H187.079L211 202.451V180.482L205.02 174.99H161.829L153.855 182.923L91 184L140 145.5L149 145.087L179.105 115.49L209.671 85.8924V69.4154H195.717V63.3129H209.671V48.0565L205.02 43.7847L170.467 73.6872L168.474 71.8565L202.362 41.9539L198.375 38.2924H145.217L137.243 45.6154H89.4013L82.0921 38.2924H38.2368Z" fill="#D9F626"/>
<path d="M28.2697 182.923L9 203.672V182.923L18.9671 173.769H36.9079L28.2697 182.923Z" fill="#D9F626"/>
</g>
<path d="M135.5 9.5H88.5L84.75 11.725V17.915H126.16C126.741 17.915 125.918 19.8962 125.434 20.8867L91 21.5L89.1089 23.5V26.0872L139.237 26.0872V13L135.5 9.5Z" fill="#F9FFF3"/>
<path d="M120.241 48.4999H91.3945L92.059 140.815L119.967 115.795V105.42L137.908 88.3333V31.5236L91.3945 31.5236V41.5023H120.241V48.4999Z" fill="white"/>
<path d="M139.237 146.308V182.923V223.5H107.5L102.651 228.326V234.425L113.908 237.872V229.99H139.237V236.655L113.908 249.5L91.3945 242.5V220.565V183.533L139.237 146.308Z" fill="white"/>
</g>
<g filter="url(#filter2_f_285_815)">
<g filter="url(#filter3_d_285_815)">
<path d="M46.2105 37.8L12.9868 60V81L18.9671 87.6001H65.4803L72.7895 78.6001H147.211L119.967 103.8V114L92.7237 138H42.2237L38.2368 144H86.7434L56.8421 172.2H43.5526L10.9934 206.4L22.9539 220.8H42.2237V214.8H72.7895L73.4539 220.8H81.4276L88.0724 213.6H139.901L145.217 218.4L167.145 200.4L170.467 203.4L148.539 220.8H187.079L211 199.2V177.6L205.02 172.2H161.829L153.855 180L91.3947 180.6L141.23 142.8H148.539L179.105 113.7L209.671 84.6001V68.4H195.717V62.4H209.671V47.4L205.02 43.2L170.467 72.6001L168.474 70.8L202.362 41.4L198.375 37.8H145.217L137.243 45H89.4013L82.0921 37.8H46.2105Z" fill="#D9F626"/>
<path d="M28.2697 180L9 200.4V180L18.9671 171H36.9079L28.2697 180Z" fill="#D9F626"/>
</g>
<path d="M139.237 9H84.75V17.7652H126.16C126.741 17.7652 125.918 19.713 125.434 20.687H89.1089V25.8L139.237 25.8V9Z" fill="#F9FFF3"/>
<path d="M120.241 44.7714H91.3945L92.059 138.6L119.967 114V103.8L137.908 87V31.145L91.3945 31.145V40.956H120.241V44.7714Z" fill="white"/>
<path d="M139.237 144V180V220.825H110.391L102.651 224.64V230.636L113.908 234.025V226.275H139.237V232.829L108.984 243L91.3945 233.427V217.01V180.6L139.237 144Z" fill="white"/>
</g>
<g filter="url(#filter4_dd_285_815)">
<g filter="url(#filter5_d_285_815)">
<path d="M38.2368 38.2924L12.9868 60.8718V82.2308L18.9671 88.9436H65.4803L72.7895 79.7898H147.211L119.967 105.421V115.795L92.7237 140.205H42.2237L38.2368 146.308H86.7434L56.8421 174.99H43.5526L10.9934 209.774L22.9539 224.421H42.2237V218.318H72.7895L73.4539 224.421H81.4276L88.0724 217.097H139.901L145.217 221.98L167.145 203.672L170.467 206.723L148.539 224.421H187.079L211 202.451V180.482L205.02 174.99H161.829L153.855 182.923L91 184L140 145.5L149 145.087L179.105 115.49L209.671 85.8924V69.4154H195.717V63.3129H209.671V48.0565L205.02 43.7847L170.467 73.6872L168.474 71.8565L202.362 41.9539L198.375 38.2924H145.217L137.243 45.6154H89.4013L82.0921 38.2924H38.2368Z" fill="#D9F626"/>
<path d="M28.2697 182.923L9 203.672V182.923L18.9671 173.769H36.9079L28.2697 182.923Z" fill="#D9F626"/>
</g>
<path d="M135.5 9.5H88.5L84.75 11.725V17.915H126.16C126.741 17.915 125.918 19.8962 125.434 20.8867L91 21.5L89.1089 23.5V26.0872L139.237 26.0872V13L135.5 9.5Z" fill="#F9FFF3"/>
<path d="M120.241 48.4999H91.3945L92.059 140.815L119.967 115.795V105.42L137.908 88.3333V31.5236L91.3945 31.5236V41.5023H120.241V48.4999Z" fill="white"/>
<path d="M139.237 146.308V182.923V223.5H107.5L102.651 228.326V234.425L113.908 237.872V229.99H139.237V236.655L113.908 249.5L91.3945 242.5V220.565V183.533L139.237 146.308Z" fill="white"/>
</g>
<rect x="221.064" y="83" width="1.68794" height="80.8174" transform="rotate(45.9272 221.064 83)" fill="white"/>
<rect x="16" y="234" width="66" height="1" fill="white"/>
<rect x="32" y="238" width="58" height="1" fill="white"/>
<rect x="35" y="93" width="50" height="1" fill="white"/>
<rect x="216.057" y="207" width="1.40056" height="36.7825" transform="rotate(47.3573 216.057 207)" fill="white"/>
<defs>
<filter id="filter0_ddd_285_815" x="5" y="9.5" width="210" height="248" filterUnits="userSpaceOnUse" color-interpolation-filters="sRGB">
<feFlood flood-opacity="0" result="BackgroundImageFix"/>
<feColorMatrix in="SourceAlpha" type="matrix" values="0 0 0 0 0 0 0 0 0 0 0 0 0 0 0 0 0 0 127 0" result="hardAlpha"/>
<feOffset dy="4"/>
<feGaussianBlur stdDeviation="2"/>
<feComposite in2="hardAlpha" operator="out"/>
<feColorMatrix type="matrix" values="0 0 0 0 0 0 0 0 0 0 0 0 0 0 0 0 0 0 0.25 0"/>
<feBlend mode="normal" in2="BackgroundImageFix" result="effect1_dropShadow_285_815"/>
<feColorMatrix in="SourceAlpha" type="matrix" values="0 0 0 0 0 0 0 0 0 0 0 0 0 0 0 0 0 0 127 0" result="hardAlpha"/>
<feOffset dy="4"/>
<feGaussianBlur stdDeviation="2"/>
<feComposite in2="hardAlpha" operator="out"/>
<feColorMatrix type="matrix" values="0 0 0 0 0 0 0 0 0 0 0 0 0 0 0 0 0 0 0.25 0"/>
<feBlend mode="normal" in2="effect1_dropShadow_285_815" result="effect2_dropShadow_285_815"/>
<feColorMatrix in="SourceAlpha" type="matrix" values="0 0 0 0 0 0 0 0 0 0 0 0 0 0 0 0 0 0 127 0" result="hardAlpha"/>
<feOffset dy="4"/>
<feGaussianBlur stdDeviation="2"/>
<feComposite in2="hardAlpha" operator="out"/>
<feColorMatrix type="matrix" values="0 0 0 0 0 0 0 0 0 0 0 0 0 0 0 0 0 0 0.25 0"/>
<feBlend mode="normal" in2="effect2_dropShadow_285_815" result="effect3_dropShadow_285_815"/>
<feBlend mode="normal" in="SourceGraphic" in2="effect3_dropShadow_285_815" result="shape"/>
</filter>
<filter id="filter1_d_285_815" x="5" y="38.2924" width="210" height="194.128" filterUnits="userSpaceOnUse" color-interpolation-filters="sRGB">
<feFlood flood-opacity="0" result="BackgroundImageFix"/>
<feColorMatrix in="SourceAlpha" type="matrix" values="0 0 0 0 0 0 0 0 0 0 0 0 0 0 0 0 0 0 127 0" result="hardAlpha"/>
<feOffset dy="4"/>
<feGaussianBlur stdDeviation="2"/>
<feComposite in2="hardAlpha" operator="out"/>
<feColorMatrix type="matrix" values="0 0 0 0 0 0 0 0 0 0 0 0 0 0 0 0 0 0 0.25 0"/>
<feBlend mode="normal" in2="BackgroundImageFix" result="effect1_dropShadow_285_815"/>
<feBlend mode="normal" in="SourceGraphic" in2="effect1_dropShadow_285_815" result="shape"/>
</filter>
<filter id="filter2_f_285_815" x="0" y="0" width="220" height="252" filterUnits="userSpaceOnUse" color-interpolation-filters="sRGB">
<feFlood flood-opacity="0" result="BackgroundImageFix"/>
<feBlend mode="normal" in="SourceGraphic" in2="BackgroundImageFix" result="shape"/>
<feGaussianBlur stdDeviation="4.5" result="effect1_foregroundBlur_285_815"/>
</filter>
<filter id="filter3_d_285_815" x="5" y="37.8" width="210" height="191" filterUnits="userSpaceOnUse" color-interpolation-filters="sRGB">
<feFlood flood-opacity="0" result="BackgroundImageFix"/>
<feColorMatrix in="SourceAlpha" type="matrix" values="0 0 0 0 0 0 0 0 0 0 0 0 0 0 0 0 0 0 127 0" result="hardAlpha"/>
<feOffset dy="4"/>
<feGaussianBlur stdDeviation="2"/>
<feComposite in2="hardAlpha" operator="out"/>
<feColorMatrix type="matrix" values="0 0 0 0 0 0 0 0 0 0 0 0 0 0 0 0 0 0 0.25 0"/>
<feBlend mode="normal" in2="BackgroundImageFix" result="effect1_dropShadow_285_815"/>
<feBlend mode="normal" in="SourceGraphic" in2="effect1_dropShadow_285_815" result="shape"/>
</filter>
<filter id="filter4_dd_285_815" x="5" y="9.5" width="210" height="248" filterUnits="userSpaceOnUse" color-interpolation-filters="sRGB">
<feFlood flood-opacity="0" result="BackgroundImageFix"/>
<feColorMatrix in="SourceAlpha" type="matrix" values="0 0 0 0 0 0 0 0 0 0 0 0 0 0 0 0 0 0 127 0" result="hardAlpha"/>
<feOffset dy="4"/>
<feGaussianBlur stdDeviation="2"/>
<feComposite in2="hardAlpha" operator="out"/>
<feColorMatrix type="matrix" values="0 0 0 0 0 0 0 0 0 0 0 0 0 0 0 0 0 0 0.25 0"/>
<feBlend mode="normal" in2="BackgroundImageFix" result="effect1_dropShadow_285_815"/>
<feColorMatrix in="SourceAlpha" type="matrix" values="0 0 0 0 0 0 0 0 0 0 0 0 0 0 0 0 0 0 127 0" result="hardAlpha"/>
<feOffset dy="4"/>
<feGaussianBlur stdDeviation="2"/>
<feComposite in2="hardAlpha" operator="out"/>
<feColorMatrix type="matrix" values="0 0 0 0 0 0 0 0 0 0 0 0 0 0 0 0 0 0 0.25 0"/>
<feBlend mode="normal" in2="effect1_dropShadow_285_815" result="effect2_dropShadow_285_815"/>
<feBlend mode="normal" in="SourceGraphic" in2="effect2_dropShadow_285_815" result="shape"/>
</filter>
<filter id="filter5_d_285_815" x="5" y="38.2924" width="210" height="194.128" filterUnits="userSpaceOnUse" color-interpolation-filters="sRGB">
<feFlood flood-opacity="0" result="BackgroundImageFix"/>
<feColorMatrix in="SourceAlpha" type="matrix" values="0 0 0 0 0 0 0 0 0 0 0 0 0 0 0 0 0 0 127 0" result="hardAlpha"/>
<feOffset dy="4"/>
<feGaussianBlur stdDeviation="2"/>
<feComposite in2="hardAlpha" operator="out"/>
<feColorMatrix type="matrix" values="0 0 0 0 0 0 0 0 0 0 0 0 0 0 0 0 0 0 0.25 0"/>
<feBlend mode="normal" in2="BackgroundImageFix" result="effect1_dropShadow_285_815"/>
<feBlend mode="normal" in="SourceGraphic" in2="effect1_dropShadow_285_815" result="shape"/>
</filter>
</defs>
</svg>
